<?xml version="1.0" encoding="iso-8859-1"?>
<!-- Uploaded to: SVG Repo, www.svgrepo.com, Generator: SVG Repo Mixer Tools -->
<svg version="1.1" id="Layer_1" xmlns="http://www.w3.org/2000/svg" xmlns:xlink="http://www.w3.org/1999/xlink" 
	 viewBox="0 0 512 512" xml:space="preserve">
<rect x="245.33" y="32" style="fill:#CCD1D9;" width="21.344" height="127.78"/>
<g>
	<path style="fill:#E6E9ED;" d="M256,149.328c-88.359,0-160,71.641-160,160V512h320V309.328
		C416,220.969,344.375,149.328,256,149.328z"/>
	<circle style="fill:#E6E9ED;" cx="256" cy="32" r="32"/>
</g>
<path style="fill:#F5F7FA;" d="M192,352c-23.531,0-42.672-19.141-42.672-42.672c0-23.516,19.141-42.672,42.672-42.672h128
	c23.531,0,42.672,19.156,42.672,42.672C362.672,332.859,343.531,352,320,352H192z"/>
<path style="fill:#AAB2BD;" d="M320,256H192c-29.453,0-53.328,23.875-53.328,53.328s23.875,53.328,53.328,53.328h128
	c29.453,0,53.328-23.875,53.328-53.328S349.453,256,320,256z M320,341.328H192c-17.641,0-32-14.359-32-32s14.359-32,32-32h128
	c17.641,0,32,14.359,32,32S337.641,341.328,320,341.328z"/>
<path style="fill:#48CFAD;" d="M320,298.656H192c-5.891,0-10.672,4.781-10.672,10.672S186.109,320,192,320h128
	c5.891,0,10.672-4.781,10.672-10.672S325.891,298.656,320,298.656z"/>
<g>
	<path style="fill:#434A54;" d="M74.672,277.328C68.781,277.328,64,282.109,64,288v32c-5.891,0-10.672,4.781-10.672,10.656
		c0,5.906,4.781,10.672,10.672,10.672v32C64,379.219,68.781,384,74.672,384s10.656-4.781,10.656-10.672V288
		C85.328,282.109,80.562,277.328,74.672,277.328z"/>
	<path style="fill:#434A54;" d="M448,320v-32c0-5.891-4.781-10.672-10.672-10.672s-10.656,4.781-10.656,10.672v85.328
		c0,5.891,4.766,10.672,10.656,10.672S448,379.219,448,373.328v-32c5.891,0,10.672-4.766,10.672-10.672
		C458.672,324.781,453.891,320,448,320z"/>
</g>
<path style="fill:#656D78;" d="M320,416c-5.891,0-10.672,4.781-10.672,10.656H202.672c0-5.875-4.781-10.656-10.672-10.656
	s-10.672,4.781-10.672,10.656v10.672c0,5.891,4.781,10.672,10.672,10.672h128c5.891,0,10.672-4.781,10.672-10.672v-10.672
	C330.672,420.781,325.891,416,320,416z"/>
</svg>